<svg id="Ebene_2" data-name="Ebene 2" xmlns="http://www.w3.org/2000/svg" viewBox="0 0 14.25 21.25"><defs><style>.cls-1,.cls-2,.cls-3{fill:#fff;}.cls-1,.cls-2,.cls-4{stroke:#000;stroke-width:0.25px;}.cls-1,.cls-4{stroke-miterlimit:10;}.cls-2{stroke-linejoin:round;}.cls-4{fill:none;}</style></defs><rect class="cls-1" x="0.13" y="3.13" width="14" height="18"/><polyline class="cls-2" points="9.63 1.13 4.63 1.13 4.63 0.13 9.63 0.13"/><path class="cls-2" d="M9.5,7.5h-1v-5a.3.3,0,0,1,.12-.25L9.5,1.5Z" transform="translate(-4.88 -1.37)"/><path class="cls-2" d="M14.5,7.5h1v-5a.28.28,0,0,0-.11-.23L14.5,1.5Z" transform="translate(-4.88 -1.37)"/><path d="M12,10.5a4,4,0,1,0,4,4A4,4,0,0,0,12,10.5Zm0,7.83a3.83,3.83,0,1,1,3.83-3.83A3.84,3.84,0,0,1,12,18.33Z" transform="translate(-4.88 -1.37)"/><path d="M12,11.54a3,3,0,1,0,3,3A3,3,0,0,0,12,11.54Zm0,.33a2.6,2.6,0,0,1,2.34,1.46H9.66A2.6,2.6,0,0,1,12,11.87Zm0,5.22a2.6,2.6,0,0,1-2.33-1.44h4.66A2.6,2.6,0,0,1,12,17.09ZM9.52,15.31a2.76,2.76,0,0,1-.13-.82,2.63,2.63,0,0,1,.13-.8h5a2.63,2.63,0,0,1,.13.8,2.76,2.76,0,0,1-.13.82Z" transform="translate(-4.88 -1.37)"/><path class="cls-3" d="M17,13v-.5H14v-3h-.5v3h-3v-3H10v3H7V13h3v3H7v.5h3v3h.5v-3h3v3H14v-3h3V16H14V13Zm-3.5,3h-3V13h3Z" transform="translate(-4.88 -1.37)"/><rect class="cls-4" x="2.13" y="8.13" width="3" height="3"/><rect class="cls-4" x="5.63" y="8.13" width="3" height="3"/><rect class="cls-4" x="9.13" y="8.13" width="3" height="3"/><rect class="cls-4" x="2.13" y="11.63" width="3" height="3"/><rect class="cls-4" x="5.63" y="11.63" width="3" height="3"/><rect class="cls-4" x="9.13" y="11.63" width="3" height="3"/><rect class="cls-4" x="2.13" y="15.13" width="3" height="3"/><rect class="cls-4" x="5.63" y="15.13" width="3" height="3"/><rect class="cls-4" x="9.13" y="15.13" width="3" height="3"/></svg>