<svg id="Ebene_1" data-name="Ebene 1" xmlns="http://www.w3.org/2000/svg" viewBox="0 0 22.5 13"><defs><style>.cls-1{fill:#fff;}.cls-2{fill:none;stroke:#000;stroke-miterlimit:10;stroke-width:0.5px;}</style></defs><path d="M12,6a6,6,0,1,0,6,6A6,6,0,0,0,12,6Zm0,11.74A5.74,5.74,0,1,1,17.74,12,5.74,5.74,0,0,1,12,17.74Z" transform="translate(-0.75 -5.5)"/><path d="M12,7.57A4.43,4.43,0,1,0,16.43,12,4.43,4.43,0,0,0,12,7.57Zm0,.49a3.92,3.92,0,0,1,3.51,2.18h-7A3.92,3.92,0,0,1,12,8.06Zm0,7.82a3.91,3.91,0,0,1-3.5-2.16h7A3.91,3.91,0,0,1,12,15.88ZM8.28,13.22A4.16,4.16,0,0,1,8.09,12a3.74,3.74,0,0,1,.19-1.21h7.44A3.74,3.74,0,0,1,15.91,12a4.16,4.16,0,0,1-.19,1.23Z" transform="translate(-0.75 -5.5)"/><rect class="cls-1" x="0.25" y="4" width="22" height="1"/><rect class="cls-1" x="0.25" width="22" height="1"/><rect class="cls-1" x="0.25" y="8" width="22" height="1"/><rect class="cls-1" x="0.25" y="12" width="22" height="1"/><rect class="cls-2" x="0.25" y="1" width="22" height="3"/><rect class="cls-2" x="0.25" y="5" width="22" height="3"/><rect class="cls-2" x="0.25" y="9" width="22" height="3"/></svg>