<svg id="Ebene_2" data-name="Ebene 2" xmlns="http://www.w3.org/2000/svg" viewBox="0 0 21 21"><defs><style>.cls-1{fill:#fff;}.cls-2{fill:none;stroke:#000;stroke-miterlimit:10;stroke-width:0.5px;}</style></defs><path d="M12,6a6,6,0,1,0,6,6A6,6,0,0,0,12,6Zm0,11.74A5.74,5.74,0,1,1,17.74,12,5.74,5.74,0,0,1,12,17.74Z" transform="translate(-1.5 -1.5)"/><path d="M12,7.57A4.43,4.43,0,1,0,16.43,12,4.43,4.43,0,0,0,12,7.57Zm0,.49a3.92,3.92,0,0,1,3.51,2.18h-7A3.92,3.92,0,0,1,12,8.06Zm0,7.82a3.91,3.91,0,0,1-3.5-2.16h7A3.91,3.91,0,0,1,12,15.88ZM8.28,13.22A4.16,4.16,0,0,1,8.09,12a3.74,3.74,0,0,1,.19-1.21h7.44A3.74,3.74,0,0,1,15.91,12a4.16,4.16,0,0,1-.19,1.23Z" transform="translate(-1.5 -1.5)"/><path class="cls-1" d="M1.5,1.5v21h21V1.5ZM20.84,18.72l-2.12,2.12L12,14.12,5.28,20.84,3.16,18.72,9.88,12,3.16,5.28,5.28,3.16,12,9.88l6.72-6.72,2.12,2.12L14.12,12Z" transform="translate(-1.5 -1.5)"/><polygon class="cls-2" points="12.62 10.5 19.34 17.22 17.22 19.34 10.5 12.62 3.78 19.34 1.66 17.22 8.38 10.5 1.66 3.78 3.78 1.66 10.5 8.38 17.22 1.66 19.34 3.78 12.62 10.5"/></svg>