<?xml version="1.0" standalone="no"?>
<!DOCTYPE svg PUBLIC "-//W3C//DTD SVG 20010904//EN"
 "http://www.w3.org/TR/2001/REC-SVG-20010904/DTD/svg10.dtd">
<svg version="1.0" xmlns="http://www.w3.org/2000/svg"
 width="851.000000pt" height="315.000000pt" viewBox="0 0 851.000000 315.000000"
 preserveAspectRatio="xMidYMid meet">
<metadata>
Created by potrace 1.15, written by Peter Selinger 2001-2017
</metadata>
<g transform="translate(0.000000,315.000000) scale(0.100000,-0.100000)"
fill="#000000" stroke="none">
<path d="M0 1575 l0 -1575 4255 0 4255 0 0 1575 0 1575 -4255 0 -4255 0 0
-1575z m1690 675 l0 -120 -185 0 -185 0 -2 -677 -3 -678 -137 -3 -138 -3 0
681 0 680 -190 0 -190 0 0 120 0 120 515 0 515 0 0 -120z m689 83 c83 -322
391 -1541 391 -1550 0 -10 -33 -13 -133 -13 l-133 0 -38 158 c-21 86 -40 160
-42 164 -2 3 -52 -12 -110 -34 l-106 -41 -111 41 c-62 23 -112 40 -113 39 -1
-1 -19 -74 -40 -162 l-39 -160 -132 -3 c-99 -2 -133 1 -133 9 0 11 382 1526
396 1572 5 15 22 17 169 17 l164 0 10 -37z m1096 -360 c93 -215 173 -389 176
-385 3 4 81 181 174 395 l168 387 159 0 158 0 0 -800 0 -800 -125 0 -125 0 -2
576 -3 576 -138 -324 -138 -323 105 -243 c59 -133 106 -247 106 -252 0 -6 -50
-10 -129 -10 l-129 0 -37 88 c-20 48 -40 90 -44 95 -4 4 -25 -34 -47 -85 l-40
-93 -132 -3 c-73 -1 -132 -1 -132 2 0 2 48 114 106 248 59 133 107 248 107
253 0 6 -60 151 -134 323 l-134 313 -3 -571 -2 -570 -125 0 -125 0 0 800 0
801 157 -3 157 -3 171 -392z m2015 277 l0 -120 -412 2 -413 3 -3 104 c-1 58 0
111 2 118 4 10 85 13 416 13 l410 0 0 -120z m904 105 c96 -20 187 -65 241
-120 188 -187 152 -586 -63 -712 -25 -15 -71 -36 -103 -48 l-59 -21 191 -329
c105 -182 193 -336 196 -342 4 -10 -31 -13 -154 -13 l-159 0 -224 410 -225
410 -3 -410 -2 -410 -130 0 -130 0 0 800 0 800 278 0 c204 0 295 -4 346 -15z
m1456 -105 l0 -120 -275 0 -275 0 0 -205 0 -205 203 -2 202 -3 0 -120 0 -120
-202 -3 -203 -2 0 -230 0 -230 270 0 270 0 0 -120 0 -120 -410 0 -410 0 0 800
0 800 415 0 415 0 0 -120z m-2360 -370 l0 -120 -275 0 -275 0 0 -125 0 -125
208 -2 207 -3 0 -120 0 -120 -207 -3 -208 -2 0 -125 0 -125 275 0 275 0 0
-120 0 -120 -412 2 -413 3 -3 600 c-1 330 0 606 3 613 3 9 96 12 415 12 l410
0 0 -120z"/>
<path d="M2126 1679 c-60 -246 -76 -323 -66 -329 7 -4 43 -18 80 -31 l67 -23
77 28 c42 16 76 31 76 36 0 9 -151 634 -154 637 -1 2 -37 -142 -80 -318z"/>
<path d="M6049 2077 c16 -29 74 -129 129 -222 l99 -170 44 1 c110 1 179 85
179 216 0 108 -36 172 -115 209 -34 16 -66 19 -203 19 l-163 0 30 -53z"/>
</g>
</svg>
