<svg id="svg" version="1.1" xmlns="http://www.w3.org/2000/svg" xmlns:xlink="http://www.w3.org/1999/xlink" width="400" height="400" viewBox="0, 0, 400,400"><g id="svgg"><path id="path0" d="M0.000 200.000 L 0.000 400.000 200.000 400.000 L 400.000 400.000 400.000 200.000 L 400.000 0.000 200.000 0.000 L 0.000 0.000 0.000 200.000 M165.731 122.767 C 200.154 202.012,199.249 200.165,201.769 196.256 C 202.742 194.747,217.367 161.677,234.269 122.767 L 265.000 52.022 294.500 52.011 L 324.000 52.000 324.000 202.000 L 324.000 352.000 306.500 352.167 C 296.875 352.258,286.937 352.561,284.415 352.839 C 277.868 353.560,278.266 360.093,277.859 245.380 C 277.653 187.421,276.908 140.000,276.203 140.000 C 274.468 140.000,225.886 254.184,225.950 258.112 C 225.977 259.824,234.582 280.879,245.071 304.901 C 255.559 328.922,263.843 349.470,263.479 350.562 C 262.826 352.521,219.499 353.163,216.419 351.259 C 215.583 350.742,211.825 343.047,208.067 334.160 C 199.718 314.408,200.282 314.408,191.933 334.160 C 188.175 343.047,184.407 350.749,183.558 351.273 C 181.745 352.394,136.108 352.839,135.215 351.745 C 134.881 351.335,143.471 330.808,154.304 306.129 C 165.137 281.450,174.023 259.850,174.050 258.129 C 174.114 254.189,125.536 140.000,123.797 140.000 C 123.092 140.000,122.347 187.421,122.141 245.380 C 121.734 360.093,122.132 353.560,115.585 352.839 C 113.063 352.561,103.125 352.258,93.500 352.167 L 76.000 352.000 76.000 202.000 L 76.000 52.000 105.500 52.011 L 135.000 52.022 165.731 122.767 " stroke="none" fill="#000000" fill-rule="evenodd"></path></g></svg>